<?xml version="1.0" standalone="no"?>
<!DOCTYPE svg PUBLIC "-//W3C//DTD SVG 1.1//EN" "http://www.w3.org/Graphics/SVG/1.1/DTD/svg11.dtd" >
<svg xmlns="http://www.w3.org/2000/svg">
<metadata></metadata>
<defs>
<font id="advent_prosemibold" horiz-adv-x="1124" >
<font-face units-per-em="2048" ascent="1638" descent="-410" />
<missing-glyph horiz-adv-x="569" />
<glyph horiz-adv-x="0" />
<glyph unicode="&#xd;" horiz-adv-x="681" />
<glyph unicode=" "  horiz-adv-x="569" />
<glyph unicode="&#x09;" horiz-adv-x="569" />
<glyph unicode="&#xa0;" horiz-adv-x="569" />
<glyph unicode="!" horiz-adv-x="526" d="M160 1335q0 119 98 119q104 0 104 -117l-34 -1091h-135zM170 91q0 38 26.5 64.5t64.5 26.5t64.5 -26.5t26.5 -64.5t-26.5 -64.5t-64.5 -26.5t-64.5 26.5t-26.5 64.5z" />
<glyph unicode="&#x22;" horiz-adv-x="872" d="M215 1427q0 49 43 72q20 10 41 10l41 -10q43 -20 43 -72l-29 -378h-110zM510 1427q0 49 43 72q20 10 41 10l41 -10q43 -20 43 -72l-29 -378h-110z" />
<glyph unicode="#" horiz-adv-x="1255" d="M70 358v177h213l57 237h-270v189h315l109 473h180l-111 -473h244l111 473h190l-111 -473h195v-189h-240l-55 -237h295v-177h-338l-84 -358h-188l80 358h-242l-82 -358h-180l84 358h-172zM463 535h242l57 237h-244z" />
<glyph unicode="$" horiz-adv-x="1105" d="M70 365l198 22q6 -76 57.5 -135t135.5 -78v547q-270 106 -330 237q-27 61 -27 142q0 123 92.5 221t264.5 125v227h186v-223q113 -8 219 -57l-10 -29q-8 -27 -23.5 -72t-25.5 -75q-80 31 -160 43v-414q164 -70 266 -158q129 -106 129 -282.5t-97 -288t-298 -133.5v-217 h-186v219q-182 23 -284.5 134t-106.5 245zM305 1085q2 -89 156 -157v325q-162 -39 -156 -168zM647 172q88 20 139.5 75.5t51.5 138.5t-50.5 142.5t-140.5 106.5v-463z" />
<glyph unicode="%" horiz-adv-x="1392" d="M70 121l1114 1401l145 -117l-1124 -1405zM88 1194q0 123 86 209t209 86t209 -86t86 -209t-86 -209t-209 -86t-209 86t-86 209zM270 1194q0 -45 32 -80t82 -35t82 35t32 80t-32 80t-82 35t-82 -35t-32 -80zM725 272.5q0 122.5 86 208.5t209 86t209 -86t86 -208.5t-86 -209 t-209 -86.5t-209 86.5t-86 209zM907 272q0 -45 31 -78.5t82 -33.5t82 33.5t31 78.5t-31 79t-82 34t-82 -34t-31 -79z" />
<glyph unicode="&#x26;" horiz-adv-x="1138" d="M72 367q0 111 37.5 192.5t77.5 127.5t94 85q80 59 165 90q-68 23 -114 96q-49 78 -49 181q0 174 151 262q96 57 183.5 57t162.5 -26l-106 -162q-27 10 -58.5 10t-70.5 -23q-70 -41 -70 -128t58.5 -127.5t109.5 -40.5q10 0 21 2l34 4v262l187 18v-256l149 33l41 -186 l-190 -39v-455q0 -174 135 -219l-33 -148q-170 18 -246 142q-92 -141 -290.5 -141.5t-294.5 128.5q-84 113 -84 261zM254 388q0 -91 47 -156.5t156.5 -65.5t175 88t65.5 201v303q-291 -68 -387 -201q-57 -78 -57 -169z" />
<glyph unicode="'" horiz-adv-x="354" d="M94 1427q0 49 41 72q23 10 45 10l41 -10q41 -20 41 -72l-29 -221h-110z" />
<glyph unicode="(" horiz-adv-x="645" d="M160 145v1139q0 156 55 238t178 151l86 -143q-135 -57 -135 -266v-1096q0 -143 43 -197q25 -29 41 -40.5t53 -34.5l-86 -136q-125 72 -180 151t-55 234z" />
<glyph unicode=")" horiz-adv-x="645" d="M160 -104q49 29 70.5 47t43 75.5t21.5 149.5v1096q0 209 -133 266l86 143q123 -70 178 -151.5t55 -237.5v-1139q0 -156 -55 -234.5t-180 -150.5z" />
<glyph unicode="*" horiz-adv-x="720" d="M35 1149l63 172l205 -119l-43 232h197l-45 -232l202 121l74 -176l-239 -41l174 -164l-166 -115l-99 228l-98 -228l-164 117l170 164z" />
<glyph unicode="+" horiz-adv-x="788" d="M70 666v180h233v270h189v-270h233v-180h-233v-246h-189v246h-233z" />
<glyph unicode="," horiz-adv-x="350" d="M8 -113q90 51 142 107l-23 6q-53 31 -52 81t27.5 75.5t65.5 25.5q47 0 71.5 -36.5t24.5 -77.5q0 -121 -135 -240z" />
<glyph unicode="-" horiz-adv-x="839" d="M92 666v180h656v-180h-656z" />
<glyph unicode="." horiz-adv-x="276" d="M8 91q0 38 27.5 64.5t64.5 26.5t63.5 -26.5t26.5 -64.5t-26.5 -64.5t-63.5 -26.5t-64.5 26.5t-27.5 64.5z" />
<glyph unicode="/" horiz-adv-x="931" d="M35 -233l663 1906h201l-666 -1906h-198z" />
<glyph unicode="0" d="M129 379v659q0 211 115.5 319.5t318.5 108.5t314.5 -114.5t111.5 -315.5v-657q0 -207 -126 -304.5t-302 -97.5t-304 97.5t-128 304.5zM315 406q0 -115 64.5 -178.5t177.5 -63.5t179.5 64.5t66.5 179.5v587q0 135 -56.5 205t-187.5 70t-187.5 -68.5t-56.5 -204.5v-591z " />
<glyph unicode="1" horiz-adv-x="481" d="M35 1296q55 8 119.5 44t107.5 94h187v-1434h-189l2 1182q-57 -35 -145 -47l-31 -5z" />
<glyph unicode="2" horiz-adv-x="819" d="M35 0v172l487 725q70 117 70 201q0 39 -14 69q-45 104 -170 105q-63 0 -112.5 -43t-62.5 -105l-167 84q37 106 131 176t234 70t241 -90q106 -100 106 -240.5t-90 -292.5l-436 -659h532v-172h-749z" />
<glyph unicode="3" horiz-adv-x="866" d="M35 170l123 125q35 -61 99.5 -99t137.5 -38q113 0 182.5 74.5t69.5 184t-84 176t-217 73.5h-225l387 581h-383v187h590v-183l-271 -405l9 -2q154 -18 267.5 -138t113.5 -298.5t-128 -305.5t-309 -127q-111 0 -207 52.5t-155 142.5z" />
<glyph unicode="4" horiz-adv-x="1042" d="M35 666l395 768h191l-281 -588h340v588h186v-588h144l-39 -180h-105v-666h-186v666h-645z" />
<glyph unicode="5" horiz-adv-x="866" d="M35 170l123 127q98 -137 228 -137t195.5 73.5t65.5 183t-85 179.5t-220 70h-250l82 768h545v-187h-373l-41 -401h92q182 0 309.5 -127t127.5 -308.5t-128 -308.5t-309 -127q-111 0 -207 52.5t-155 142.5z" />
<glyph unicode="6" horiz-adv-x="937" d="M35 412v532q0 170 104 318q53 76 155.5 124t240.5 48h71v-187h-63q-322 0 -322 -336v-157q37 39 108.5 65.5t139.5 26.5q182 0 309 -127t127 -308.5t-127 -308.5t-308 -127t-308 127.5t-127 309.5zM219 412q0 -104 73 -178t177 -74t177 73.5t73 178t-73 176t-176 71.5 t-176 -68.5t-75 -168.5v-10z" />
<glyph unicode="7" horiz-adv-x="899" d="M43 0l614 1247h-598v187h807v-187l-616 -1247h-207z" />
<glyph unicode="8" horiz-adv-x="940" d="M35 412q0 125 63.5 227t169.5 158q-154 104 -153 295q0 150 104.5 255t254 105t255 -105.5t105.5 -254.5q0 -193 -158 -297q104 -57 167.5 -158.5t63.5 -224.5q0 -182 -128 -309.5t-308 -127.5t-308 127t-128 310zM221 410.5q0 -103.5 73 -176t177 -72.5t177 72.5t73 177 t-71.5 177.5t-186.5 75q-100 -2 -171 -76t-71 -177.5zM295 1092.5q0 -72.5 50 -122.5t124 -50t126 50t52 122.5t-51 125t-124 52.5t-125 -52.5t-52 -125z" />
<glyph unicode="9" horiz-adv-x="937" d="M35 1019q0 181 128 308t308 127t307 -127t127 -309v-529q0 -170 -102 -317q-55 -76 -157.5 -124t-239.5 -48h-72v174h80q139 0 223 94t84 258v148q-104 -90 -250 -90q-182 0 -309 127t-127 308zM221 1017.5q0 -102.5 74 -175t176 -72.5t176 72.5t74 178t-75 177.5 t-176 72t-175 -75t-74 -177.5z" />
<glyph unicode=":" horiz-adv-x="262" d="M35 324q0 41 28.5 69.5t68.5 28.5t68.5 -28.5t28.5 -69.5t-28.5 -70t-68.5 -29t-68.5 29t-28.5 70zM37 760q0 39 28.5 67.5t67.5 28.5t66.5 -28.5t27.5 -67.5t-27.5 -66.5t-66.5 -27.5t-67.5 27.5t-28.5 66.5z" />
<glyph unicode=";" horiz-adv-x="323" d="M35 -113q90 51 141 107l-24 6q-51 29 -51.5 80t27.5 76.5t65 25.5q49 0 73.5 -36.5t24.5 -73.5q0 -121 -135 -244zM102 536.5q0 38.5 27 65.5t65.5 27t66.5 -27t28 -65.5t-28 -66.5t-66.5 -28t-65.5 28t-27 66.5z" />
<glyph unicode="&#x3c;" horiz-adv-x="763" d="M35 733v2l569 570l127 -121l-455 -451l451 -454l-123 -115z" />
<glyph unicode="=" horiz-adv-x="722" d="M35 453v180h655v-180h-655zM35 731v180h655v-180h-655z" />
<glyph unicode="&#x3e;" horiz-adv-x="763" d="M33 1184l127 121l569 -570v-2l-569 -569l-123 115l450 454z" />
<glyph unicode="?" horiz-adv-x="815" d="M35 1090q0 154 95 258t269 104q84 0 162 -35q143 -66 203 -229q18 -51 18 -92q0 -129 -73 -236q-37 -55 -91.5 -111.5t-81 -88t-48 -104.5t-23.5 -183v-129h-180v190q0 94 28.5 174t62.5 125t87 106.5t90 119t37 124.5q0 86 -56.5 138.5t-132 52.5t-127 -49t-51.5 -135 h-188zM283 91q0 38 26.5 64.5t63.5 26.5t64.5 -26.5t27.5 -64.5t-27.5 -64.5t-64.5 -26.5t-63.5 26.5t-26.5 64.5z" />
<glyph unicode="@" horiz-adv-x="1529" d="M35 375v325q0 115 38 207t103 150q125 113 279 141q117 18 199.5 18.5t161.5 -23.5t146.5 -67t107.5 -123.5t40 -185.5l76 -31v-176l-76 33v-457q-268 -78 -446 -77q-90 0 -160 24.5t-122 96t-60 188.5v207q0 227 180 295q55 25 98 24.5t94 -4.5q117 -8 228 -57 q-10 86 -82 125q-76 43 -178 43q-193 0 -323 -87t-130 -280v-295q0 -143 76.5 -234.5t180 -123t230.5 -31.5q215 0 379 84t164 248l-2 358q0 180 43 240q53 72 162 94l55 -145q-51 -20 -66.5 -58.5t-15.5 -97.5l2 -363q0 -121 -48 -217t-123 -152.5t-175 -92.5 q-176 -68 -379 -68h-8q-276 0 -462.5 142.5t-186.5 402.5zM496 467q0 -88 53 -139q29 -31 66.5 -42.5t108.5 -11.5t200 43v388q-133 68 -265 67q-74 0 -118.5 -41t-44.5 -121v-143z" />
<glyph unicode="A" horiz-adv-x="1079" d="M37 0l379 1434h243l400 -1434h-217l-113 420h-377l-108 -420h-207zM397 614h287l-147 512z" />
<glyph unicode="B" horiz-adv-x="1122" d="M160 0v1434h430q168 0 275.5 -92.5t107.5 -274.5t-135 -274q-2 -2 -2 -5v-2q90 -41 150.5 -132t60.5 -232q0 -162 -91 -283q-47 -63 -134 -101t-206 -38h-456zM346 172h205q139 0 212 52t73 191.5t-74 195t-187 55.5h-229v-494zM346 846h180q233 0 234 207 q0 111 -57.5 153.5t-165.5 42.5h-191v-403z" />
<glyph unicode="C" horiz-adv-x="884" d="M135 375v657q0 156 44 236t134 135q92 51 219 51q158 0 291 -68l-53 -159q-98 37 -203.5 37t-175 -52.5t-69.5 -160.5v-672q0 -92 45 -143q57 -66 184 -66t293 49l30 -172q-171 -67 -326 -67h-5q-33 0 -99.5 6t-141.5 46t-121 127t-46 216z" />
<glyph unicode="D" horiz-adv-x="1179" d="M160 0v1436h385q231 0 353 -127t122 -338v-561q0 -410 -434 -410h-426zM346 170h207q156 0 218.5 55t62.5 164v602q0 133 -73 196.5t-196 63.5h-219v-1081z" />
<glyph unicode="E" horiz-adv-x="952" d="M160 0v1434h684v-185h-498v-403h320l-56 -180h-264v-498h494v-168h-680z" />
<glyph unicode="F" horiz-adv-x="919" d="M160 0v1434h684v-185h-498v-403h309l-65 -180h-244v-666h-186z" />
<glyph unicode="G" horiz-adv-x="1099" d="M133 387v643q0 262 178 371q92 51 219 51q158 0 291 -68l-55 -159q-104 39 -199 39q-248 0 -248 -215v-666q0 -217 244 -217q98 0 163 53t65 162v53h-123l-62 180h369v-614h-168l-19 41q-90 -61 -223 -61q-180 0 -306 102t-126 305z" />
<glyph unicode="H" horiz-adv-x="1204" d="M160 0v1434h186v-588h510v588h184v-1434h-184v666h-510v-666h-186z" />
<glyph unicode="I" horiz-adv-x="606" d="M129 1257v177h317v-1434h-188v1253z" />
<glyph unicode="J" horiz-adv-x="452" d="M-10 76q47 0 87 12t75.5 63.5t35.5 137.5v964l-127 4v177h312v-1164q0 -180 -75 -262t-251 -84z" />
<glyph unicode="K" horiz-adv-x="1048" d="M162 0v1436h196v-562l377 562h223l-444 -650l533 -786h-230l-414 616l-45 -67v-549h-196z" />
<glyph unicode="L" horiz-adv-x="901" d="M160 0v1434h186v-1264h553v-170h-739z" />
<glyph unicode="M" horiz-adv-x="1421" d="M160 0v1434h186l361 -1057l364 1057h186v-1434h-186v877l-287 -877h-155l-283 874v-874h-186z" />
<glyph unicode="N" horiz-adv-x="1331" d="M160 0v1434h186l633 -1053v1053h188v-1434h-188l-633 1057v-1057h-186z" />
<glyph unicode="O" d="M129 379v659q0 211 115.5 319.5t318.5 108.5t314.5 -114.5t111.5 -315.5v-657q0 -207 -126 -304.5t-302 -97.5t-304 97.5t-128 304.5zM315 406q0 -115 64.5 -178.5t177.5 -63.5t179.5 64.5t66.5 179.5v587q0 135 -56.5 205t-187.5 70t-187.5 -68.5t-56.5 -204.5v-591z " />
<glyph unicode="P" d="M160 0v1434h479q207 0 308.5 -131.5t101.5 -337.5q0 -530 -392 -531h-311v-434h-186zM346 614h266q92 0 162 45q35 23 70 113q18 43 18 94v97q0 160 -65.5 223t-192.5 63h-258v-635z" />
<glyph unicode="Q" d="M129 379v659q0 211 115.5 319.5t318.5 108.5t314.5 -114.5t111.5 -315.5v-657q0 -174 -88 -267.5t-207 -115.5q27 -33 66 -43t74 -10h47l-19 -164h-14q-258 0 -344 203q-133 8 -246 92q-59 43 -94 121.5t-35 183.5zM315 381q0 -74 38 -143.5t114 -71.5q-4 25 -4 115v75 h188v-73q0 -98 2 -115q78 4 114 67.5t36 147.5v659q0 98 -58.5 164t-185.5 66q-244 0 -244 -230v-661z" />
<glyph unicode="R" horiz-adv-x="1155" d="M160 0v1434h491q197 0 297.5 -133.5t100.5 -337.5q0 -252 -72 -363q-37 -57 -94 -100l168 -500h-191l-149 438q-16 -4 -47 -4h-318v-434h-186zM346 614h277q117 0 163 64q51 72 58 131q10 74 10 154q0 160 -66.5 222t-193.5 62h-248v-633z" />
<glyph unicode="S" horiz-adv-x="1148" d="M76 365l198 22q10 -96 86 -161.5t204 -65.5t204 61.5t76 150.5t-40 148.5t-105.5 96t-143.5 67.5t-155.5 64.5t-143.5 74.5q-145 94 -145 277q0 143 119.5 248.5t342.5 105.5q170 0 299 -61l-8 -29q-10 -27 -25.5 -72t-25.5 -75q-121 49 -245 49t-190.5 -48.5t-66.5 -123 t80 -127t187.5 -94.5t214 -94t181.5 -150.5t75 -233.5q0 -184 -121 -301t-356.5 -117t-363.5 118t-132 270z" />
<glyph unicode="T" horiz-adv-x="823" d="M0 1249v185h823v-185h-323v-1249h-187v1249h-313z" />
<glyph unicode="U" horiz-adv-x="1159" d="M152 381v1055h186v-1002q0 -268 244.5 -268t244.5 268v1002h187v-1055q0 -109 -38 -188.5t-102.5 -122.5t-136 -63.5t-153.5 -20.5t-155 20.5t-137.5 63.5t-102 122.5t-37.5 188.5z" />
<glyph unicode="V" horiz-adv-x="1214" d="M160 1434h209l280 -1096l277 1096h213l-375 -1434h-227z" />
<glyph unicode="W" horiz-adv-x="1660" d="M160 1434h205l210 -1049l220 1049h159l220 -1049l200 1049h211l-295 -1434h-227l-189 899l-186 -899h-231z" />
<glyph unicode="X" horiz-adv-x="1374" d="M160 0l448 719l-420 715h220l319 -521l311 521h219l-417 -703l450 -731h-235l-336 535l-328 -535h-231z" />
<glyph unicode="Y" horiz-adv-x="1130" d="M106 874v560h187v-553q0 -131 73.5 -197t193.5 -66t184.5 36t84.5 89v691h187v-1115q-1 -319 -275 -350l-55 140q143 27 143 219v176q-100 -70 -254 -70q-213 0 -341 117t-128 323z" />
<glyph unicode="Z" horiz-adv-x="1126" d="M63 0v170l750 1081h-723v183h959v-183l-752 -1077h764v-174h-998z" />
<glyph unicode="[" horiz-adv-x="653" d="M160 -233v1906h329v-172l-143 -20v-1522l143 -20v-172h-329z" />
<glyph unicode="\" horiz-adv-x="1099" d="M154 1673h200l664 -1906h-199z" />
<glyph unicode="]" horiz-adv-x="653" d="M160 -61l143 20v1522l-143 20v172h329v-1906h-329v172z" />
<glyph unicode="^" horiz-adv-x="829" d="M160 1552l303 289l291 -289l-117 -79l-176 184l-187 -184z" />
<glyph unicode="_" horiz-adv-x="710" d="M143 0h656v-139h-656v139z" />
<glyph unicode="`" horiz-adv-x="454" d="M94 1409q0 61 49 82q14 6 31 6q66 0 90 -61l98 -228h-129l-114 150q-25 33 -25 51z" />
<glyph unicode="a" horiz-adv-x="937" d="M76 346v170q0 203 141 272q70 33 154 33q178 0 307 -82q0 172 -254 172l14 131q166 0 246 -38q43 -23 76 -45.5t51 -59.5t30.5 -64.5t16.5 -74.5q6 -72 6 -150v-610q-213 -20 -340 -20q-449 0 -448 366zM262 360q0 -210 263 -210h3q68 0 150 12v391q-109 63 -248 80 q-14 2 -48 2t-77 -30t-43 -109v-136z" />
<glyph unicode="b" horiz-adv-x="991" d="M160 0v1434h186v-428q89 39 189 39q1 -1 3 -1q102 0 203 -40q174 -80 174 -295v-387q0 -203 -159 -285q-120 -61 -270 -61q-3 0 -6 -1q-147 0 -320 25zM346 162q57 -12 120.5 -12t124 13t100.5 53t40 101v349q0 88 -47 137q-53 55 -159.5 55t-178.5 -45v-651z" />
<glyph unicode="c" horiz-adv-x="784" d="M74 369v262q0 145 57 243q98 170 324 170q135 0 274 -65l-51 -156q-106 41 -179 41t-122 -20q-117 -51 -117 -201v-297q0 -184 246 -184q94 0 178 26l49 -176q-131 -35 -237.5 -35t-208.5 33q-213 70 -213 359z" />
<glyph unicode="d" horiz-adv-x="991" d="M160 322v387q0 215 174 295q99 41 208 41q0 -1 2 -1q110 0 187 -40v430h184v-1434q-176 -25 -325.5 -25t-270.5 62q-160 82 -159 285zM344 311q0 -104 115 -143q61 -20 129 -20q2 0 4 -1q67 0 139 17v649q-90 47 -175 47t-148.5 -47t-63.5 -160v-342z" />
<glyph unicode="e" horiz-adv-x="888" d="M72 274v420q0 166 103.5 258t273 92t265 -91t95.5 -253v-294l-549 -31v-80q0 -82 48.5 -115t111.5 -33q115 0 268 82l70 -157q-158 -96 -330 -97q-356 0 -356 299zM260 549l361 20v133q0 84 -53.5 124t-132.5 40t-127 -48t-48 -126v-143z" />
<glyph unicode="f" horiz-adv-x="643" d="M160 0v1124q0 182 94 256q96 76 197 76q47 0 116 -8l-30 -168q-25 6 -59 6t-72 -24q-57 -33 -58 -138v-98h199l-49 -176h-150v-850h-188z" />
<glyph unicode="g" horiz-adv-x="917" d="M76 360v306q0 180 105.5 279t270 99t214.5 -73l24 55h158v-1157q0 -276 -287 -299l-45 145q145 18 146 179v161q-51 -80 -218.5 -80t-267.5 98.5t-100 286.5zM262 375q0 -102 48 -161.5t147 -59.5h1q204 0 204 278v227q0 98 -52.5 150.5t-148.5 52.5t-147.5 -55 t-51.5 -152v-280z" />
<glyph unicode="h" horiz-adv-x="1009" d="M131 0v1434h186v-433q76 43 188.5 43t207.5 -38q174 -80 174 -297v-709h-187v655q0 98 -44 151.5t-107 61.5q-25 2 -49 2q-106 0 -183 -47v-823h-186z" />
<glyph unicode="i" horiz-adv-x="528" d="M160 1353q0 40 31.5 70.5t71.5 30.5t71 -30.5t31 -70.5t-31 -72t-71 -32t-71.5 32t-31.5 72zM166 0v1026h186v-1026h-186z" />
<glyph unicode="j" horiz-adv-x="452" d="M-4 -285q18 0 48 14.5t50 32.5q51 54 51 152v936l-100 16l-47 160h334v-1180q-4 -115 -90 -194.5t-201 -79.5zM137 1354q0 41 32 70.5t73 29.5t70.5 -29.5t29.5 -70.5t-29.5 -73t-70.5 -32t-73 32t-32 73z" />
<glyph unicode="k" horiz-adv-x="942" d="M133 0v1434h186v-684l343 315l137 -131l-281 -240q270 -448 426 -694h-231l-338 565l-56 -51v-514h-186z" />
<glyph unicode="l" horiz-adv-x="509" d="M160 0v1434h186v-1434h-186z" />
<glyph unicode="m" horiz-adv-x="1513" d="M160 0v1026h170l12 -33q86 49 193 49q161 0 253 -98q174 98 330 98q147 0 233.5 -94t86.5 -239v-709h-187v651q0 217 -161 217q-61 0 -146 -30l-49 -21q18 -41 18 -96v-721h-186v647q0 113 -58.5 168t-142.5 55t-180 -55v-815h-186z" />
<glyph unicode="n" horiz-adv-x="1024" d="M131 0v1026h170l14 -33q90 49 199 49t199 -36q174 -80 174 -297v-709h-187v666q0 98 -59 149t-147 51t-179 -47v-819h-184z" />
<glyph unicode="o" horiz-adv-x="999" d="M160 377v270q0 195 99 298.5t281.5 103.5t283 -108t100.5 -294v-270q0 -172 -94.5 -284.5t-285 -112.5t-287.5 113.5t-97 283.5zM346 356q0 -96 55.5 -146t143.5 -50t141 51t53 145v291q0 217 -194 217q-199 0 -199 -217v-291z" />
<glyph unicode="p" horiz-adv-x="1007" d="M160 -430v1456h178l4 -45q72 61 201 61q190 0 289.5 -110.5t99.5 -286.5v-285q0 -186 -104.5 -285.5t-276.5 -99.5q-125 0 -205 58v-418zM346 369q0 -211 205 -211q194 0 194 229v266q0 104 -51 156.5t-143 52.5t-147.5 -51t-57.5 -147v-295z" />
<glyph unicode="q" horiz-adv-x="917" d="M76 360v283q0 176 99 287.5t290 111.5q111 0 201 -67l6 51h176v-1456l-184 45v420q-72 -59 -226 -59q0 -1 -1 -1q-153 0 -257 99q-104 100 -104 286zM260 356q0 -96 51 -147t146 -51q207 0 207 219v272q-6 168 -142 205q-31 8 -63.5 8t-60 -8t-62.5 -31q-76 -45 -76 -192 v-275z" />
<glyph unicode="r" horiz-adv-x="745" d="M125 0v1026h176l8 -31q92 47 211 47q37 0 156 -22l-45 -178q-54 27 -107 27l-2 -1q-54 0 -100 -16q-111 -41 -111 -143v-709h-186z" />
<glyph unicode="s" horiz-adv-x="882" d="M74 260l184 14q4 -55 57.5 -93t133 -38t130 38t50.5 99.5t-51.5 102.5t-126 64.5t-150.5 52t-133 90.5q-72 74 -72 178t83 193.5t270 89.5q66 0 123 -15.5t81 -29.5l25 -15l-55 -168q-57 49 -160 49t-134.5 -32.5t-31.5 -75.5q0 -55 60.5 -88t136 -58.5t150.5 -60.5 t127 -106.5t52 -187.5t-93 -205t-272 -89t-279.5 84t-104.5 207z" />
<glyph unicode="t" horiz-adv-x="538" d="M90 270v1164h189v-408h213l-50 -176h-163v-580q0 -129 145 -149l-55 -148q-279 25 -279 297z" />
<glyph unicode="u" horiz-adv-x="915" d="M74 352v674h186v-657q0 -211 199 -211q193 0 192 217v651h187v-1026h-176l-7 45q-82 -68 -196 -68q-385 0 -385 375z" />
<glyph unicode="v" horiz-adv-x="907" d="M29 1026h202l220 -725l217 725h200l-321 -1026h-195z" />
<glyph unicode="w" horiz-adv-x="1449" d="M29 1026h202l215 -725l191 725h178l191 -725l204 725h201l-328 -1026h-194l-168 645l-170 -645h-199z" />
<glyph unicode="x" horiz-adv-x="1083" d="M137 0l320 510l-320 516h230l204 -334l211 334h226l-324 -514l313 -512h-221l-205 328l-204 -328h-230z" />
<glyph unicode="y" horiz-adv-x="1017" d="M76 360v666h184v-633q0 -129 47 -182t146.5 -53t152.5 52t53 183v350q0 113 56.5 198t167.5 103l65 -147q-104 -29 -104 -147v-875q0 -131 -57.5 -205.5t-196.5 -99.5l-68 147q137 23 137 164v156q-66 -61 -227 -61q-1 -1 -2 -1q-160 0 -257 97q-97 98 -97 288z" />
<glyph unicode="z" horiz-adv-x="987" d="M160 0v174l475 678h-457v174h705v-170l-477 -682h505v-174h-751z" />
<glyph unicode="{" horiz-adv-x="704" d="M160 725q49 39 98 102.5t49 118.5v215q0 256 55.5 367.5t210.5 154.5l52 -149q-131 -35 -131 -242v-358q0 -88 -119 -207q123 -123 123 -209v-356q0 -207 131 -242l-54 -158q-106 39 -159.5 88.5t-79 144.5t-25.5 265v246q0 39 -32.5 89t-54 70.5t-64.5 59.5z" />
<glyph unicode="|" horiz-adv-x="509" d="M160 -233v1906h186v-1906h-186z" />
<glyph unicode="}" horiz-adv-x="704" d="M160 -80q131 35 131 242v356q0 86 123 209q-119 119 -119 207v358q0 207 -131 242l51 149q156 -43 211 -154.5t55 -367.5v-215q0 -55 49.5 -118.5t98.5 -102.5q-43 -39 -64.5 -59.5t-54.5 -70.5t-33 -89v-246q0 -170 -25.5 -265t-79 -144.5t-159.5 -88.5z" />
<glyph unicode="~" horiz-adv-x="1087" d="M160 653q94 117 239 117q55 0 179.5 -35t181.5 -35q111 0 174 76l78 -121q-90 -117 -234 -116q-59 0 -243 57q-57 16 -113 16q-117 0 -189 -80z" />
<glyph unicode="&#xa1;" horiz-adv-x="526" d="M160 119l33 1089h135l34 -1091q0 -117 -104 -117q-98 0 -98 119zM170 1363q0 38 26.5 64.5t64.5 26.5t64.5 -26.5t26.5 -64.5t-26.5 -64.5t-64.5 -26.5t-64.5 26.5t-26.5 64.5z" />
<glyph unicode="&#xa2;" horiz-adv-x="894" d="M160 369v262q0 178 83 281.5t220 125.5v238h184v-244q78 -14 168 -53l-51 -156q-57 23 -117 33v-692q57 6 123 24l49 -176q-92 -23 -172 -28v-217h-184v221q-31 4 -74 16q-121 41 -175 126t-54 239zM346 346q0 -125 117 -168v666q-117 -51 -117 -201v-297z" />
<glyph unicode="&#xa3;" horiz-adv-x="972" d="M160 0v170q111 18 172 96t61 195q0 59 -28 160h-158v184h98q-49 147 -49 250q0 178 111.5 287.5t268.5 109.5t238 -51l-57 -168q-78 43 -176 43t-149.5 -71.5t-51.5 -149.5t56 -250h366v-184h-307q25 -97 25 -154q0 -162 -107 -293h424v-174h-737z" />
<glyph unicode="&#xa4;" horiz-adv-x="1005" d="M162 915l135 127l65 -71q76 51 189 51t174 -51l74 73l129 -129l-74 -65q53 -106 53 -186t-55 -195l70 -68l-121 -127l-76 78q-80 -49 -182.5 -49t-175.5 49l-72 -80l-123 127l70 68q-53 74 -53.5 182.5t49.5 192.5zM358 662.5q0 -76.5 55.5 -130t132.5 -53.5t131 53.5 t54 129t-54 131t-131 55.5t-132.5 -54.5t-55.5 -131z" />
<glyph unicode="&#xa5;" horiz-adv-x="1202" d="M160 1434h198l260 -523h44l264 523h200l-264 -523h113v-180h-205l-33 -67v-31h238v-180h-238v-453h-188v453h-230v180h230v31l-35 67h-195v180h105z" />
<glyph unicode="&#xa7;" horiz-adv-x="1210" d="M160 -16h192q4 -80 80 -147.5t202 -67.5t216 51t90 172q0 135 -152 205q-68 31 -149.5 59.5t-162.5 63t-146.5 80.5t-102.5 123t-37 187.5t72 200.5q-66 82 -65 195q0 143 118.5 247.5t341.5 104.5q170 0 299 -61l-10 -29q-16 -45 -51 -147q-117 59 -233 59 q-272 0 -273 -180q0 -72 74 -121t179.5 -83t213 -79t188.5 -137q90 -102 91 -274q0 -125 -50 -218q47 -72 48 -176q0 -188 -120 -301.5t-356.5 -113.5t-364.5 117.5t-132 269.5zM381 681q0 -77 61.5 -133t139.5 -81q266 -84 350 -139q14 53 14 100q0 84 -68.5 149.5 t-151.5 97.5t-182.5 67.5t-133.5 60.5q-29 -45 -29 -122z" />
<glyph unicode="&#xa8;" horiz-adv-x="454" d="M0 1443q0 34 23.5 58.5t58.5 24.5t59.5 -24.5t24.5 -59.5t-24.5 -58.5t-58.5 -23.5t-58.5 24.5t-24.5 58.5zM287 1444q0 35 24.5 59.5t59.5 24.5t59.5 -24.5t24.5 -59.5t-24.5 -59.5t-59.5 -24.5t-59.5 24.5t-24.5 59.5z" />
<glyph unicode="&#xa9;" horiz-adv-x="1638" d="M51 508q0 326 223.5 545t546 219t543.5 -219t221 -545t-223 -547t-541.5 -221t-544 221t-225.5 547zM242 507q0 -255 166.5 -420t410.5 -165t411 166t167 415t-168 418t-409.5 169t-409.5 -164t-168 -419zM391 500.5q0 201.5 117 340t317 138.5q150 0 262.5 -88 t137.5 -229h-187q-12 51 -73.5 88.5t-141.5 37.5q-127 0 -187.5 -80.5t-60.5 -201.5t65 -203t185 -82q84 0 146.5 39t66.5 98h189q-33 -147 -143.5 -236t-254.5 -89q-203 0 -320.5 133t-117.5 334.5z" />
<glyph unicode="&#xaa;" horiz-adv-x="786" d="M160 1063q0 162 121 215q43 18 109.5 18t166.5 -59q0 57 -32.5 80.5t-84 23.5t-86.5 -2l17 113h41q170 0 234.5 -68.5t64.5 -246.5v-336q-141 -23 -205 -23t-126.5 6.5t-109.5 35t-78.5 90t-31.5 153.5zM303 1051q0 -135 162 -136q43 0 92 11v176q-104 57 -174 57 q-33 0 -56.5 -24.5t-23.5 -83.5z" />
<glyph unicode="&#xab;" horiz-adv-x="1046" d="M86 547v2l383 383l123 -123l-266 -262l264 -268l-121 -115zM537 547v2l383 383l122 -123l-266 -262l264 -268l-120 -115z" />
<glyph unicode="&#xad;" horiz-adv-x="839" d="M92 666v180h656v-180h-656z" />
<glyph unicode="&#xae;" horiz-adv-x="1638" d="M51 508q0 326 223.5 545t546 219t543.5 -219t221 -545t-223 -547t-541.5 -221t-544 221t-225.5 547zM242 507q0 -255 166.5 -420t410.5 -165t411 166t167 415t-168 418t-409.5 169t-409.5 -164t-168 -419zM559 80v895h266q158 0 237 -66.5t79 -189.5q0 -172 -166 -230 l184 -409h-190l-164 389h-68v-389h-178zM737 618h82q139 0 139 101q0 47 -33.5 75.5t-78.5 28.5h-109v-205z" />
<glyph unicode="&#xaf;" horiz-adv-x="688" d="M160 1268v162h452v-162h-452z" />
<glyph unicode="&#xb0;" horiz-adv-x="825" d="M160 1157q0 123 86 209t209 86t209 -86t86 -209t-86 -209t-209 -86t-209 86t-86 209zM319 1157q0 -53 38 -94t97.5 -41t97.5 41t38 94t-38 94t-97.5 41t-97.5 -41t-38 -94z" />
<glyph unicode="&#xb1;" horiz-adv-x="890" d="M160 446v170h239v103h-239v160h239v237h174v-237h242v-160h-242v-103h242v-170h-655z" />
<glyph unicode="&#xb4;" horiz-adv-x="454" d="M94 1204l99 228q25 61 92 61q14 0 28 -6q49 -20 49 -60.5t-24 -72.5l-115 -150h-129z" />
<glyph unicode="&#xb5;" horiz-adv-x="978" d="M76 -412v1438h186v-803q16 -16 91 -43.5t147 -27.5q166 0 166 217v649l188 26v-903q6 -57 55 -86l-151 -67q-6 -2 -21.5 9.5t-27.5 29.5q-57 -51 -173 -51.5t-274 67.5v-473z" />
<glyph unicode="&#xb6;" horiz-adv-x="1439" d="M160 1073q0 205 94 334t287 129h825v-1944h-178v1756l-139 2v-1756l-181 -2v912h-346q-137 0 -209 53q-37 29 -64.5 58.5t-43 78.5t-25.5 86t-14 99q-6 92 -6 194z" />
<glyph unicode="&#xb8;" horiz-adv-x="532" d="M143 -418l64 135q76 -51 141 -51q141 0 141 84q0 45 -40 60q-12 4 -38 4t-75 -21l-84 -39l-59 86l124 160h125l-65 -90q33 14 87 14t105.5 -46t51.5 -141t-85 -145.5t-182.5 -50.5t-210.5 41z" />
<glyph unicode="&#xbb;" horiz-adv-x="1058" d="M2 809l123 123l383 -383v-2l-383 -383l-121 115l266 268zM453 809l122 123l383 -383v-2l-383 -383l-120 115l266 268z" />
<glyph unicode="&#xbf;" horiz-adv-x="983" d="M160 356q0 129 73 236q37 53 91.5 110.5t81.5 88.5q66 84 69 288v129h182v-190q0 -94 -28.5 -174t-63.5 -125t-87 -105.5t-89 -119t-37 -125.5q0 -86 56.5 -138.5t132 -52.5t126 49t50.5 135h190q0 -154 -95 -258t-269 -104q-84 0 -162 35q-143 66 -203 231 q-18 49 -18 90zM477 1361q0 38 26.5 64.5t64.5 26.5t64.5 -26.5t26.5 -64.5t-26.5 -64.5t-64.5 -26.5t-64.5 26.5t-26.5 64.5z" />
<glyph unicode="&#xc0;" horiz-adv-x="1079" d="M37 0l379 1434h243l400 -1434h-217l-113 420h-377l-108 -420h-207zM309 1704q0 59 49 80q14 6 31 6q66 0 90 -61l99 -228h-129l-115 150q-25 33 -25 53zM397 614h287l-147 512z" />
<glyph unicode="&#xc1;" horiz-adv-x="1079" d="M37 0l379 1434h243l400 -1434h-217l-113 420h-377l-108 -420h-207zM397 614h287l-147 512zM479 1497l99 227q25 61 92 62q14 0 28 -6q49 -20 49.5 -60.5t-24.5 -72.5l-115 -150h-129z" />
<glyph unicode="&#xc2;" horiz-adv-x="1079" d="M37 0l379 1434h243l400 -1434h-217l-113 420h-377l-108 -420h-207zM244 1579l303 289l291 -289l-117 -80l-176 184l-187 -184zM397 614h287l-147 512z" />
<glyph unicode="&#xc3;" horiz-adv-x="1079" d="M37 0l379 1434h243l400 -1434h-217l-113 420h-377l-108 -420h-207zM197 1618q96 109 204 108q37 0 83 -18t98.5 -42t103.5 -24q80 0 143 72l74 -115q-92 -109 -196 -108q-37 0 -84.5 19.5t-98.5 43t-102 23.5q-86 0 -156 -74zM397 614h287l-147 512z" />
<glyph unicode="&#xc4;" horiz-adv-x="1079" d="M37 0l379 1434h243l400 -1434h-217l-113 420h-377l-108 -420h-207zM309 1579q0 35 23.5 59.5t58.5 24.5t59.5 -24.5t24.5 -59.5t-24.5 -58.5t-59.5 -23.5t-58.5 23.5t-23.5 58.5zM397 614h287l-147 512zM596 1580q0 34 25.5 59.5t59.5 25.5t58.5 -24.5t24.5 -59.5 t-24.5 -59.5t-59.5 -24.5t-59.5 24.5t-24.5 58.5z" />
<glyph unicode="&#xc5;" horiz-adv-x="1079" d="M37 0l369 1397q-90 68 -90.5 170t65 167.5t158 65.5t158 -65.5t65.5 -169t-92 -170.5l389 -1395h-217l-113 420h-377l-108 -420h-207zM397 614h287l-147 512zM451 1577q0 -37 25.5 -62.5t62 -25.5t62.5 25.5t26 62.5t-26 62.5t-62.5 25.5t-62 -25.5t-25.5 -62.5z" />
<glyph unicode="&#xc6;" horiz-adv-x="1671" d="M160 0l749 1434h686v-185h-497v-403h340l-60 -180h-280v-496h493v-170h-682l2 434h-311l-225 -434h-215zM692 614h219v424z" />
<glyph unicode="&#xc7;" horiz-adv-x="884" d="M135 375v657q0 156 44 236t134 135q92 51 219 51q158 0 291 -68l-53 -159q-98 37 -203.5 37t-175 -52.5t-69.5 -160.5v-672q0 -92 45 -143q57 -66 184 -66t293 49l30 -172q-168 -66 -329 -67l-49 -70q33 14 87 14t105 -46t51 -141t-85 -145.5t-182 -50.5t-210 41l64 135 q76 -51 141 -51q141 0 141 84q0 45 -41 60q-12 4 -37.5 4t-74.5 -21l-84 -39l-60 86l115 148q-133 25 -212 119t-79 268z" />
<glyph unicode="&#xc8;" horiz-adv-x="952" d="M160 0v1434h684v-185h-498v-403h320l-56 -180h-264v-498h494v-168h-680zM297 1700q0 61 49 82q14 6 31 6q66 0 90 -62l98 -227h-129l-114 150q-25 33 -25 51z" />
<glyph unicode="&#xc9;" horiz-adv-x="952" d="M160 0v1434h684v-185h-498v-403h320l-56 -180h-264v-498h494v-168h-680zM485 1495l99 227q25 61 92 62q14 0 29 -6q49 -20 49 -60.5t-25 -72.5l-115 -150h-129z" />
<glyph unicode="&#xca;" horiz-adv-x="952" d="M160 0v1434h684v-185h-498v-403h320l-56 -180h-264v-498h494v-168h-680zM209 1579l303 289l291 -289l-117 -80l-176 184l-186 -184z" />
<glyph unicode="&#xcb;" horiz-adv-x="952" d="M160 0v1434h684v-185h-498v-403h320l-56 -180h-264v-498h494v-168h-680zM268 1579q0 35 23.5 59.5t58.5 24.5t59.5 -24.5t24.5 -59.5t-24.5 -58.5t-59.5 -23.5t-58.5 23.5t-23.5 58.5zM555 1580q0 34 25.5 59.5t59.5 25.5t58.5 -24.5t24.5 -59.5t-24.5 -59.5t-59.5 -24.5 t-59.5 24.5t-24.5 58.5z" />
<glyph unicode="&#xcc;" horiz-adv-x="647" d="M166 1257v177h317v-1434h-188v1253zM203 1700q0 61 49 82q14 6 31 6q66 0 90 -62l98 -227h-129l-115 150q-25 33 -24 51z" />
<glyph unicode="&#xcd;" horiz-adv-x="759" d="M160 1257v177h317v-1434h-188v1253zM328 1495l98 227q25 61 92 62q14 0 29 -6q49 -20 49 -60.5t-25 -72.5l-114 -150h-129z" />
<glyph unicode="&#xce;" horiz-adv-x="917" d="M160 1579l303 289l291 -289l-117 -80l-176 184l-187 -184zM244 1257v177h317v-1434h-188v1253z" />
<glyph unicode="&#xcf;" horiz-adv-x="778" d="M160 1575q0 35 23.5 59.5t58 24.5t59.5 -24.5t25 -59.5t-25 -58.5t-58.5 -23.5t-58 23.5t-24.5 58.5zM195 1257v177h317v-1434h-188v1253zM446 1576q0 34 25 59.5t59.5 25.5t59 -24.5t24.5 -59.5t-24.5 -59.5t-59 -24.5t-59.5 24.5t-25 58.5z" />
<glyph unicode="&#xd0;" horiz-adv-x="1314" d="M160 870v181h100v385h385q207 0 327 -104.5t142 -280.5h125v-181h-119v-460q0 -410 -434 -410h-426v870h-100zM446 170h207q156 0 218.5 55t62.5 164v481h-488v-700zM446 1051h484q-33 200 -264 200h-220v-200z" />
<glyph unicode="&#xd1;" horiz-adv-x="1331" d="M160 0v1434h186l633 -1053v1053h188v-1434h-188l-633 1057v-1057h-186zM324 1616q96 109 204 108q37 0 83 -18t98.5 -42t103.5 -24q80 0 143 72l74 -115q-92 -109 -196 -108q-37 0 -84.5 19.5t-98.5 43t-102 23.5q-86 0 -156 -74z" />
<glyph unicode="&#xd2;" d="M129 379v659q0 211 115.5 319.5t318.5 108.5t314.5 -114.5t111.5 -315.5v-657q0 -207 -126 -304.5t-302 -97.5t-304 97.5t-128 304.5zM315 406q0 -115 64.5 -178.5t177.5 -63.5t179.5 64.5t66.5 179.5v587q0 135 -56.5 205t-187.5 70t-187.5 -68.5t-56.5 -204.5v-591z M342 1700q0 61 49 82q14 6 31 6q66 0 90 -62l98 -227h-129l-114 150q-25 33 -25 51z" />
<glyph unicode="&#xd3;" d="M129 379v659q0 211 115.5 319.5t318.5 108.5t314.5 -114.5t111.5 -315.5v-657q0 -207 -126 -304.5t-302 -97.5t-304 97.5t-128 304.5zM315 406q0 -115 64.5 -178.5t177.5 -63.5t179.5 64.5t66.5 179.5v587q0 135 -56.5 205t-187.5 70t-187.5 -68.5t-56.5 -204.5v-591z M526 1495l99 227q25 61 92 62q14 0 28 -6q49 -20 49.5 -60.5t-24.5 -72.5l-115 -150h-129z" />
<glyph unicode="&#xd4;" d="M129 379v659q0 211 115.5 319.5t318.5 108.5t314.5 -114.5t111.5 -315.5v-657q0 -207 -126 -304.5t-302 -97.5t-304 97.5t-128 304.5zM268 1579l303 289l291 -289l-117 -80l-176 184l-186 -184zM315 406q0 -115 64.5 -178.5t177.5 -63.5t179.5 64.5t66.5 179.5v587 q0 135 -56.5 205t-187.5 70t-187.5 -68.5t-56.5 -204.5v-591z" />
<glyph unicode="&#xd5;" d="M129 379v659q0 211 115.5 319.5t318.5 108.5t314.5 -114.5t111.5 -315.5v-657q0 -207 -126 -304.5t-302 -97.5t-304 97.5t-128 304.5zM227 1620q96 109 205 109q37 0 83 -18.5t98.5 -42t103.5 -23.5q80 0 143 71l74 -114q-92 -109 -197 -109q-37 0 -84 19.5t-98 43 t-102 23.5q-86 0 -156 -74zM315 406q0 -115 64.5 -178.5t177.5 -63.5t179.5 64.5t66.5 179.5v587q0 135 -56.5 205t-187.5 70t-187.5 -68.5t-56.5 -204.5v-591z" />
<glyph unicode="&#xd6;" d="M129 379v659q0 211 115.5 319.5t318.5 108.5t314.5 -114.5t111.5 -315.5v-657q0 -207 -126 -304.5t-302 -97.5t-304 97.5t-128 304.5zM315 406q0 -115 64.5 -178.5t177.5 -63.5t179.5 64.5t66.5 179.5v587q0 135 -56.5 205t-187.5 70t-187.5 -68.5t-56.5 -204.5v-591z M328 1579q0 35 23.5 59.5t58 24.5t59.5 -24.5t25 -59.5t-25 -58.5t-58.5 -23.5t-58 23.5t-24.5 58.5zM614 1580q0 34 25 59.5t59.5 25.5t59 -24.5t24.5 -59.5t-24.5 -59.5t-59 -24.5t-59.5 24.5t-25 58.5z" />
<glyph unicode="&#xd7;" horiz-adv-x="858" d="M160 928l123 104l188 -225l186 227l125 -102l-207 -250l205 -246l-123 -106l-186 223l-186 -225l-121 108l201 246z" />
<glyph unicode="&#xd8;" horiz-adv-x="1126" d="M170 379v659q0 211 115.5 319.5t318.5 108.5q82 0 156 -22l80 229h200l-114 -327q104 -117 104 -310v-657q0 -207 -126 -304.5t-302 -97.5q-78 0 -147 19l-80 -229h-199l111 317q-117 102 -117 295zM356 406q1 -50 13 -89l325 940q-41 12 -94 13q-131 0 -187.5 -68.5 t-56.5 -204.5v-591zM516 174q33 -10 84 -10q111 0 177.5 64.5t66.5 179.5v587q0 35 -8 92z" />
<glyph unicode="&#xd9;" horiz-adv-x="1159" d="M152 381v1055h186v-1002q0 -268 244.5 -268t244.5 268v1002h187v-1055q0 -109 -38 -188.5t-102.5 -122.5t-136 -63.5t-153.5 -20.5t-155 20.5t-137.5 63.5t-102 122.5t-37.5 188.5zM379 1700q0 61 49 82q14 6 31 6q66 0 90 -62l98 -227h-129l-115 150q-25 33 -24 51z" />
<glyph unicode="&#xda;" horiz-adv-x="1159" d="M152 381v1055h186v-1002q0 -268 244.5 -268t244.5 268v1002h187v-1055q0 -109 -38 -188.5t-102.5 -122.5t-136 -63.5t-153.5 -20.5t-155 20.5t-137.5 63.5t-102 122.5t-37.5 188.5zM518 1497l98 227q25 61 93 62q14 0 28 -6q49 -20 49 -60.5t-24 -72.5l-115 -150h-129z " />
<glyph unicode="&#xdb;" horiz-adv-x="1159" d="M152 381v1055h186v-1002q0 -268 244.5 -268t244.5 268v1002h187v-1055q0 -109 -38 -188.5t-102.5 -122.5t-136 -63.5t-153.5 -20.5t-155 20.5t-137.5 63.5t-102 122.5t-37.5 188.5zM287 1579l303 289l291 -289l-117 -80l-176 184l-187 -184z" />
<glyph unicode="&#xdc;" horiz-adv-x="1159" d="M152 381v1055h186v-1002q0 -268 244.5 -268t244.5 268v1002h187v-1055q0 -109 -38 -188.5t-102.5 -122.5t-136 -63.5t-153.5 -20.5t-155 20.5t-137.5 63.5t-102 122.5t-37.5 188.5zM352 1579q0 35 23.5 59.5t58.5 24.5t59.5 -24.5t24.5 -59.5t-24.5 -58.5t-58.5 -23.5 t-58.5 23.5t-24.5 58.5zM639 1580q0 34 24.5 59.5t59.5 25.5t59.5 -24.5t24.5 -59.5t-24.5 -59.5t-59.5 -24.5t-59.5 24.5t-24.5 58.5z" />
<glyph unicode="&#xdd;" horiz-adv-x="1130" d="M106 874v560h187v-553q0 -131 73.5 -197t193.5 -66t184.5 36t84.5 89v691h187v-1115q-1 -319 -275 -350l-55 140q143 27 143 219v176q-100 -70 -254 -70q-213 0 -341 117t-128 323zM500 1497l98 227q25 61 92 62q14 0 29 -6q49 -20 49 -60.5t-25 -72.5l-114 -150h-129z " />
<glyph unicode="&#xde;" horiz-adv-x="1007" d="M160 0v1434h184v-453q82 61 199 61q190 0 289.5 -110.5t99.5 -294.5t-105.5 -291.5t-275.5 -107.5q-129 0 -207 79v-317h-184zM345 643q-1 -113 58.5 -171t143.5 -58t142.5 56t58.5 164.5t-53.5 170t-138.5 61.5t-147.5 -55t-63.5 -168z" />
<glyph unicode="&#xdf;" horiz-adv-x="1116" d="M160 0v1100q0 154 84 245t231.5 91t225 -86t77.5 -197t-78 -178l-47 2q-35 -59 -10 -111q29 -55 71 -94t72 -63q84 -74 136 -127q119 -127 118 -289q0 -74 -36 -148q-51 -106 -168 -145q-72 -27 -131 -27q-184 0 -306 103l86 168q90 -88 205 -88q90 0 127 61q29 45 29 92 q0 90 -98 189q-31 33 -100.5 95t-104.5 99q-104 115 -105 209q0 63 41 137q70 0 99 56q14 27 14 54.5t-14 53.5q-27 55 -93 55q-139 0 -139 -196v-1061h-186z" />
<glyph unicode="&#xe0;" horiz-adv-x="1024" d="M160 346v170q0 203 141 272q70 33 154 33q178 0 307 -82q0 172 -254 172l14 131q166 0 246 -38q43 -23 76 -45.5t51 -59.5t30.5 -64.5t16.5 -74.5q6 -72 6 -150v-610q-213 -20 -340 -20q-449 0 -448 366zM342 1307q0 61 49 82q14 6 31 6q66 0 90 -62l98 -227h-129 l-114 149q-25 33 -25 52zM346 360q0 -211 266 -210q68 0 150 12v391q-109 63 -250 80q-12 2 -46 2t-77 -30t-43 -109v-136z" />
<glyph unicode="&#xe1;" horiz-adv-x="1024" d="M160 346v170q0 203 141 272q70 33 154 33q178 0 307 -82q0 172 -254 172l14 131q166 0 246 -38q43 -23 76 -45.5t51 -59.5t30.5 -64.5t16.5 -74.5q6 -72 6 -150v-610q-213 -20 -340 -20q-449 0 -448 366zM346 360q0 -211 266 -210q68 0 150 12v391q-109 63 -250 80 q-12 2 -46 2t-77 -30t-43 -109v-136zM528 1102l99 227q25 61 92 62q14 0 29 -7q49 -20 49 -60t-25 -73l-115 -149h-129z" />
<glyph unicode="&#xe2;" horiz-adv-x="1024" d="M160 346v170q0 203 141 272q70 33 154 33q178 0 307 -82q0 172 -254 172l14 131q166 0 246 -38q43 -23 76 -45.5t51 -59.5t30.5 -64.5t16.5 -74.5q6 -72 6 -150v-610q-213 -20 -340 -20q-449 0 -448 366zM276 1184l304 289l290 -289l-116 -80l-176 184l-187 -184z M346 360q0 -211 266 -210q68 0 150 12v391q-109 63 -250 80q-12 2 -46 2t-77 -30t-43 -109v-136z" />
<glyph unicode="&#xe3;" horiz-adv-x="1024" d="M160 346v170q0 203 141 272q70 33 154 33q178 0 307 -82q0 172 -254 172l14 131q166 0 246 -38q43 -23 76 -45.5t51 -59.5t30.5 -64.5t16.5 -74.5q6 -72 6 -150v-610q-213 -20 -340 -20q-449 0 -448 366zM211 1231q96 109 205 108q37 0 83 -18t98 -42t103 -24 q80 0 144 72l74 -115q-92 -109 -197 -108q-37 0 -84 19.5t-98.5 43t-102.5 23.5q-86 0 -155 -74zM346 360q0 -211 266 -210q68 0 150 12v391q-109 63 -250 80q-12 2 -46 2t-77 -30t-43 -109v-136z" />
<glyph unicode="&#xe4;" horiz-adv-x="1024" d="M160 346v170q0 203 141 272q70 33 154 33q178 0 307 -82q0 172 -254 172l14 131q166 0 246 -38q43 -23 76 -45.5t51 -59.5t30.5 -64.5t16.5 -74.5q6 -72 6 -150v-610q-213 -20 -340 -20q-449 0 -448 366zM346 360q0 -211 266 -210q68 0 150 12v391q-109 63 -250 80 q-12 2 -46 2t-77 -30t-43 -109v-136zM348 1186q0 35 23.5 59.5t58.5 24.5t59.5 -24.5t24.5 -59.5t-24.5 -58.5t-58.5 -23.5t-58.5 23.5t-24.5 58.5zM635 1187q0 34 24.5 59.5t59.5 25.5t59.5 -24.5t24.5 -59.5t-24.5 -59.5t-59.5 -24.5t-59.5 24.5t-24.5 58.5z" />
<glyph unicode="&#xe5;" horiz-adv-x="1024" d="M160 346v170q0 203 141 272q70 33 154 33q178 0 307 -82q0 172 -254 172v2q-84 10 -140.5 73t-56.5 152t65.5 154.5t158 65.5t158 -65.5t65.5 -143.5t-33 -131q63 -18 108.5 -54t67 -71t33.5 -92q14 -78 14 -191v-610q-213 -20 -340 -20q-449 0 -448 366zM346 360 q0 -211 266 -210q68 0 150 12v391q-109 63 -250 80q-12 2 -46 2t-77 -30t-43 -109v-136zM446 1134.5q0 -36.5 26 -62t62.5 -25.5t62.5 25.5t26 62t-26 62.5t-62.5 26t-62.5 -26t-26 -62.5z" />
<glyph unicode="&#xe6;" horiz-adv-x="1574" d="M160 346v170q0 203 141 272q70 33 154 33q178 0 307 -82q0 172 -254 172l14 131q233 0 336 -96q102 98 276.5 98t269.5 -91t95 -253v-294l-549 -31v-80q0 -82 48.5 -115t111.5 -33q115 0 268 82l70 -157q-160 -96 -363 -97q-82 0 -147 25q-203 -18 -328 -18 q-451 0 -450 364zM346 360q0 -211 266 -210q68 0 150 12v391q-109 63 -250 80q-12 2 -46 2t-77 -30t-43 -109v-136zM950 549l361 20v133q0 84 -53.5 124t-131 40t-127 -48t-49.5 -126v-143z" />
<glyph unicode="&#xe7;" horiz-adv-x="784" d="M74 369v262q0 145 57 243q98 170 324 170q135 0 274 -65l-51 -156q-106 41 -179 41t-122 -20q-117 -51 -117 -201v-297q0 -184 246 -184q94 0 178 26l49 -176q-133 -33 -239 -32h-33l-49 -70q33 14 87 14t105 -46t51 -141t-85 -145.5t-182 -50.5t-210 41l64 135 q76 -51 143 -51q139 0 139 84q0 45 -41 60q-12 4 -37.5 4t-74.5 -21l-84 -39l-60 86l119 154q-14 2 -43 10q-121 41 -175 126t-54 239z" />
<glyph unicode="&#xe8;" horiz-adv-x="972" d="M160 274v420q0 166 103.5 258t273.5 92t265 -91t95 -253v-294l-549 -31v-80q0 -82 48.5 -115t111.5 -33q115 0 268 82l70 -157q-158 -96 -330 -97q-356 0 -356 299zM326 1307q0 61 49 82q14 6 31 6q66 0 90 -62l98 -227h-129l-115 149q-25 33 -24 52zM348 549l361 20v133 q0 84 -53.5 124t-131.5 40t-127 -48t-49 -126v-143z" />
<glyph unicode="&#xe9;" horiz-adv-x="972" d="M160 274v420q0 166 103.5 258t273.5 92t265 -91t95 -253v-294l-549 -31v-80q0 -82 48.5 -115t111.5 -33q115 0 268 82l70 -157q-158 -96 -330 -97q-356 0 -356 299zM348 549l361 20v133q0 84 -53.5 124t-131.5 40t-127 -48t-49 -126v-143zM492 1102l98 227q25 61 92 62 q14 0 29 -7q49 -20 49 -60t-25 -73l-114 -149h-129z" />
<glyph unicode="&#xea;" horiz-adv-x="972" d="M160 274v420q0 166 103.5 258t273.5 92t265 -91t95 -253v-294l-549 -31v-80q0 -82 48.5 -115t111.5 -33q115 0 268 82l70 -157q-158 -96 -330 -97q-356 0 -356 299zM262 1184l303 289l291 -289l-117 -80l-176 184l-186 -184zM348 549l361 20v133q0 84 -53.5 124 t-131.5 40t-127 -48t-49 -126v-143z" />
<glyph unicode="&#xeb;" horiz-adv-x="1099" d="M72 274v420q0 166 103.5 258t273 92t265 -91t95.5 -253v-294l-549 -31v-80q0 -82 48.5 -115t111.5 -33q115 0 268 82l70 -157q-158 -96 -330 -97q-356 0 -356 299zM215 1186q0 35 23.5 59.5t58.5 24.5t59.5 -24.5t24.5 -59.5t-24.5 -58.5t-59.5 -23.5t-58.5 23.5 t-23.5 58.5zM260 549l361 20v133q0 84 -53.5 124t-132.5 40t-127 -48t-48 -126v-143zM502 1187q0 34 25.5 59.5t59.5 25.5t58.5 -24.5t24.5 -59.5t-24.5 -59.5t-59.5 -24.5t-59.5 24.5t-24.5 58.5z" />
<glyph unicode="&#xec;" horiz-adv-x="540" d="M160 1307q0 61 49 82q14 6 31 6q66 0 90 -62l98 -227h-129l-115 149q-25 33 -24 52zM279 0v1026h186v-1026h-186z" />
<glyph unicode="&#xed;" horiz-adv-x="540" d="M160 0v1026h186v-1026h-186zM197 1102l98 227q25 61 92 62q14 0 29 -7q49 -20 49 -60t-25 -73l-114 -149h-129z" />
<glyph unicode="&#xee;" horiz-adv-x="466" d="M-74 1184l303 289l291 -289l-117 -80l-176 184l-186 -184zM133 0v1026h186v-1026h-186z" />
<glyph unicode="&#xef;" horiz-adv-x="690" d="M160 1186q0 35 23.5 59.5t58 24.5t59.5 -24.5t25 -59.5t-25 -58.5t-58.5 -23.5t-58 23.5t-24.5 58.5zM291 0v1026h186v-1026h-186zM446 1187q0 34 25 59.5t59.5 25.5t59 -24.5t24.5 -59.5t-24.5 -59.5t-59 -24.5t-59.5 24.5t-25 58.5z" />
<glyph unicode="&#xf1;" horiz-adv-x="991" d="M160 0v1026h170l14 -33q90 49 198.5 49t198.5 -36q174 -80 174 -297v-709h-186v666q0 98 -59.5 149t-147.5 51t-178 -47v-819h-184zM188 1233q96 109 205 108q37 0 83 -18t98.5 -42t103.5 -24q80 0 143 72l74 -115q-92 -109 -197 -108q-37 0 -84 19.5t-98 43t-102 23.5 q-86 0 -156 -74z" />
<glyph unicode="&#xf2;" horiz-adv-x="999" d="M160 377v270q0 195 99 298.5t281.5 103.5t283 -108t100.5 -294v-270q0 -172 -94.5 -284.5t-285 -112.5t-287.5 113.5t-97 283.5zM324 1307q0 61 49 82q14 6 30 6q66 0 91 -62l98 -227h-129l-115 149q-25 33 -24 52zM346 356q0 -96 55.5 -146t143.5 -50t141 51t53 145v291 q0 217 -194 217q-199 0 -199 -217v-291z" />
<glyph unicode="&#xf3;" horiz-adv-x="999" d="M160 377v270q0 195 99 298.5t281.5 103.5t283 -108t100.5 -294v-270q0 -172 -94.5 -284.5t-285 -112.5t-287.5 113.5t-97 283.5zM346 356q0 -96 55.5 -146t143.5 -50t141 51t53 145v291q0 217 -194 217q-199 0 -199 -217v-291zM489 1102l99 227q25 61 92 62q14 0 29 -7 q49 -20 49 -60t-25 -73l-115 -149h-129z" />
<glyph unicode="&#xf4;" horiz-adv-x="999" d="M160 377v270q0 195 99 298.5t281.5 103.5t283 -108t100.5 -294v-270q0 -172 -94.5 -284.5t-285 -112.5t-287.5 113.5t-97 283.5zM254 1184l303 289l291 -289l-117 -80l-176 184l-186 -184zM346 356q0 -96 55.5 -146t143.5 -50t141 51t53 145v291q0 217 -194 217 q-199 0 -199 -217v-291z" />
<glyph unicode="&#xf5;" horiz-adv-x="1001" d="M160 377v270q0 195 99 298.5t281.5 103.5t283 -108t100.5 -294v-270q0 -172 -94.5 -284.5t-285 -112.5t-287.5 113.5t-97 283.5zM207 1198q96 109 205 109q37 0 83 -18.5t98 -42t103 -23.5q80 0 144 71l73 -114q-92 -109 -196 -109q-37 0 -84 19.5t-98.5 43t-102.5 23.5 q-86 0 -156 -74zM346 356q0 -96 55.5 -146t143.5 -50t141 51t53 145v291q0 217 -194 217q-199 0 -199 -217v-291z" />
<glyph unicode="&#xf6;" horiz-adv-x="999" d="M160 377v270q0 195 99 298.5t281.5 103.5t283 -108t100.5 -294v-270q0 -172 -94.5 -284.5t-285 -112.5t-287.5 113.5t-97 283.5zM326 1186q0 35 23.5 59.5t58 24.5t59.5 -24.5t25 -59.5t-25 -58.5t-59.5 -23.5t-58 23.5t-23.5 58.5zM346 356q0 -96 55.5 -146t143.5 -50 t141 51t53 145v291q0 217 -194 217q-199 0 -199 -217v-291zM612 1187q0 34 26 59.5t59.5 25.5t58 -24.5t24.5 -59.5t-24.5 -59.5t-59 -24.5t-59.5 24.5t-25 58.5z" />
<glyph unicode="&#xf7;" horiz-adv-x="890" d="M160 709v157h655v-157h-655zM397 531.5q0 39.5 29 67.5t67.5 28t66.5 -28t28 -66.5t-28 -67.5t-66.5 -29t-67.5 28t-29 67.5zM397 1034q0 39 29 66.5t67.5 27.5t66.5 -27.5t28 -66.5t-28 -67.5t-66.5 -28.5t-67.5 28.5t-29 67.5z" />
<glyph unicode="&#xf8;" horiz-adv-x="1019" d="M162 377v270q0 195 99 298.5t286 103.5q68 0 127 -19l76 174h184l-113 -260q104 -109 105 -297v-270q0 -172 -94.5 -284.5t-284.5 -112.5q-74 0 -135 18l-58 -135h-180l94 221q-106 106 -106 293zM348 356q0 -40 8 -67l244 569q-25 6 -53 6q-199 0 -199 -217v-291z M485 166q27 -6 62 -6q88 0 141 51t53 145v291q0 47 -10 88z" />
<glyph unicode="&#xf9;" horiz-adv-x="999" d="M160 352v674h186v-657q0 -211 199 -211q193 0 192 217v651h187v-1026h-176l-7 45q-82 -68 -196 -68q-385 0 -385 375zM338 1307q0 61 49 82q14 6 31 6q66 0 90 -62l98 -227h-129l-115 149q-25 33 -24 52z" />
<glyph unicode="&#xfa;" horiz-adv-x="999" d="M160 352v674h186v-657q0 -211 199 -211q193 0 192 217v651h187v-1026h-176l-7 45q-82 -68 -196 -68q-385 0 -385 375zM489 1102l99 227q25 61 92 62q14 0 29 -7q49 -20 49 -60t-25 -73l-115 -149h-129z" />
<glyph unicode="&#xfb;" horiz-adv-x="999" d="M160 352v674h186v-657q0 -211 199 -211q193 0 192 217v651h187v-1026h-176l-7 45q-82 -68 -196 -68q-385 0 -385 375zM246 1184l303 289l291 -289l-117 -80l-176 184l-187 -184z" />
<glyph unicode="&#xfc;" horiz-adv-x="999" d="M160 352v674h186v-657q0 -211 199 -211q193 0 192 217v651h187v-1026h-176l-7 45q-82 -68 -196 -68q-385 0 -385 375zM315 1186q0 35 23.5 59.5t58.5 24.5t59.5 -24.5t24.5 -59.5t-24.5 -58.5t-58 -23.5t-58.5 23.5t-25 58.5zM602 1187q0 34 24.5 59.5t59.5 25.5 t59.5 -24.5t24.5 -59.5t-24.5 -59.5t-59.5 -24.5t-59.5 24.5t-24.5 58.5z" />
<glyph unicode="&#xfd;" horiz-adv-x="1107" d="M160 360v666h184v-633q0 -129 47 -182t146.5 -53t152.5 52t53 183v350q0 113 56.5 198t167.5 103l65 -147q-104 -29 -104 -147v-875q0 -131 -57.5 -205.5t-196.5 -99.5l-68 147q137 23 137 164v156q-66 -61 -227.5 -61.5t-258.5 97t-97 287.5zM483 1102l99 227 q25 61 92 62q14 0 28 -7q49 -20 49.5 -60t-24.5 -73l-115 -149h-129z" />
<glyph unicode="&#xfe;" horiz-adv-x="1007" d="M160 0v1204h184v-223q82 61 199 61q190 0 289.5 -110.5t99.5 -294.5t-105.5 -291.5t-275.5 -107.5q-129 0 -207 79v-317h-184zM345 643q-1 -113 58.5 -171t143.5 -58t142.5 56t58.5 164.5t-53.5 170t-138.5 61.5t-147.5 -55t-63.5 -168z" />
<glyph unicode="&#xff;" horiz-adv-x="1107" d="M160 360v666h184v-633q0 -129 47 -182t146.5 -53t152.5 52t53 183v350q0 113 56.5 198t167.5 103l65 -147q-104 -29 -104 -147v-875q0 -131 -57.5 -205.5t-196.5 -99.5l-68 147q137 23 137 164v156q-66 -61 -227.5 -61.5t-258.5 97t-97 287.5zM328 1186q0 35 23.5 59.5 t58 24.5t59.5 -24.5t25 -59.5t-25 -58.5t-58.5 -23.5t-58 23.5t-24.5 58.5zM614 1187q0 34 25 59.5t59.5 25.5t59 -24.5t24.5 -59.5t-24.5 -59.5t-59 -24.5t-59.5 24.5t-25 58.5z" />
<glyph unicode="&#x152;" horiz-adv-x="1591" d="M160 379v659q0 211 115.5 319.5t318.5 108.5q137 0 240 -57v25h684v-185h-498v-403h319l-55 -180h-264v-498h493v-168h-679v33q-104 -55 -261 -55.5t-285 97t-128 304.5zM346 406q0 -115 64.5 -178.5t175 -63.5t177.5 61t71 170v625q-4 123 -61.5 186.5t-185.5 63.5 t-184.5 -68.5t-56.5 -204.5v-591z" />
<glyph unicode="&#x153;" horiz-adv-x="1593" d="M160 377v270q0 195 99 298.5t290.5 103.5t292.5 -136q68 74 141.5 102.5t183.5 28.5q158 0 254.5 -102t96.5 -264v-281l-592 -39v-51q0 -162 252 -162q109 0 249 70l70 -143q-160 -96 -369.5 -96.5t-306.5 120.5q-94 -117 -280.5 -116.5t-283.5 114t-97 283.5zM346 356 q0 -111 59.5 -161t138.5 -50t137 50t58 161v291q0 227 -194 227q-199 0 -199 -227v-291zM926 537l405 20v115q0 104 -55 154.5t-144.5 50.5t-147.5 -57.5t-58 -170.5v-112z" />
<glyph unicode="&#x178;" horiz-adv-x="1130" d="M106 874v560h187v-553q0 -131 73.5 -197t193.5 -66t184.5 36t84.5 89v691h187v-1115q-1 -319 -275 -350l-55 140q143 27 143 219v176q-100 -70 -254 -70q-213 0 -341 117t-128 323zM334 1579q0 35 23.5 59.5t58.5 24.5t59.5 -24.5t24.5 -59.5t-24.5 -58.5t-59.5 -23.5 t-58.5 23.5t-23.5 58.5zM621 1580q0 34 25.5 59.5t59 25.5t58 -24.5t24.5 -59.5t-24.5 -59.5t-59 -24.5t-59 24.5t-24.5 58.5z" />
<glyph unicode="&#x2c6;" horiz-adv-x="780" d="M94 1288l303 289l291 -289l-117 -80l-176 185l-186 -185z" />
<glyph unicode="&#x2dc;" horiz-adv-x="942" d="M160 1331q96 109 205 109q37 0 83 -18.5t98 -42t103 -23.5q80 0 144 71l73 -114q-92 -109 -196 -109q-37 0 -84 19.5t-98.5 43t-102.5 23.5q-86 0 -156 -73z" />
<glyph unicode="&#x2000;" horiz-adv-x="934" />
<glyph unicode="&#x2001;" horiz-adv-x="1868" />
<glyph unicode="&#x2002;" horiz-adv-x="934" />
<glyph unicode="&#x2003;" horiz-adv-x="1868" />
<glyph unicode="&#x2004;" horiz-adv-x="622" />
<glyph unicode="&#x2005;" horiz-adv-x="467" />
<glyph unicode="&#x2006;" horiz-adv-x="311" />
<glyph unicode="&#x2007;" horiz-adv-x="311" />
<glyph unicode="&#x2008;" horiz-adv-x="233" />
<glyph unicode="&#x2009;" horiz-adv-x="373" />
<glyph unicode="&#x200a;" horiz-adv-x="103" />
<glyph unicode="&#x2010;" horiz-adv-x="839" d="M92 666v180h656v-180h-656z" />
<glyph unicode="&#x2011;" horiz-adv-x="839" d="M92 666v180h656v-180h-656z" />
<glyph unicode="&#x2012;" horiz-adv-x="839" d="M92 666v180h656v-180h-656z" />
<glyph unicode="&#x2013;" horiz-adv-x="1207" d="M92 666v180h1024v-180h-1024z" />
<glyph unicode="&#x2014;" horiz-adv-x="2231" d="M92 666v180h2048v-180h-2048z" />
<glyph unicode="&#x2018;" horiz-adv-x="264" d="M6 1221q0 121 135 239l121 -59q-90 -52 -141 -107l22 -6q53 -31 52.5 -81t-27.5 -75.5t-66 -25.5q-47 0 -71.5 37t-24.5 78z" />
<glyph unicode="&#x2019;" horiz-adv-x="264" d="M2 1159q90 51 141 107l-22 6q-53 31 -52 81t27.5 75.5t65.5 25.5q47 0 71.5 -37t24.5 -78q0 -120 -135 -239z" />
<glyph unicode="&#x201a;" horiz-adv-x="350" d="M8 -113q90 51 142 107l-23 6q-53 31 -52 81t27.5 75.5t65.5 25.5q47 0 71.5 -36.5t24.5 -77.5q0 -121 -135 -240z" />
<glyph unicode="&#x201c;" horiz-adv-x="571" d="M6 1221q0 121 135 239l121 -59q-90 -52 -141 -107l22 -6q53 -31 52.5 -81t-27.5 -75.5t-66 -25.5q-47 0 -71.5 37t-24.5 78zM270 1221q0 121 136 239l120 -59q-90 -52 -141 -107l23 -6q53 -31 52 -81t-27.5 -75.5t-65.5 -25.5q-47 0 -72 37t-25 78z" />
<glyph unicode="&#x201d;" horiz-adv-x="571" d="M4 1163q90 51 141 107l-22 6q-53 31 -52 81t27.5 75.5t65.5 25.5q47 0 71.5 -37t24.5 -78q0 -120 -135 -239zM268 1163q90 51 142 107l-23 6q-53 31 -52 81t27.5 75.5t65.5 25.5q47 0 71.5 -37t24.5 -78q0 -120 -135 -239z" />
<glyph unicode="&#x201e;" horiz-adv-x="659" d="M117 -111q90 51 141 107l-22 6q-53 31 -52.5 81t27.5 75.5t57.5 25.5t50.5 -12q20 12 58.5 11t62 -36.5t23.5 -76.5q0 -121 -135 -240l-60 29q-10 -8 -30 -29z" />
<glyph unicode="&#x2022;" horiz-adv-x="966" d="M160 690.5q0 151.5 106.5 258t258 106.5t259 -106.5t107.5 -258t-107.5 -259t-259 -107.5t-258 107.5t-106.5 259z" />
<glyph unicode="&#x2026;" horiz-adv-x="1013" d="M8 91q0 38 27.5 64.5t64.5 26.5t63.5 -26.5t26.5 -64.5t-26.5 -64.5t-63.5 -26.5t-64.5 26.5t-27.5 64.5zM377 91q0 38 27.5 64.5t64.5 26.5t63.5 -26.5t26.5 -64.5t-26.5 -64.5t-63.5 -26.5t-64.5 26.5t-27.5 64.5zM745 91q0 38 28 64.5t64.5 26.5t63.5 -26.5t27 -64.5 t-27 -64.5t-63.5 -26.5t-64.5 26.5t-28 64.5z" />
<glyph unicode="&#x202f;" horiz-adv-x="373" />
<glyph unicode="&#x2039;" horiz-adv-x="595" d="M86 547v2l383 383l123 -123l-266 -262l264 -268l-121 -115z" />
<glyph unicode="&#x203a;" horiz-adv-x="608" d="M2 809l123 123l383 -383v-2l-383 -383l-121 115l264 268z" />
<glyph unicode="&#x205f;" horiz-adv-x="467" />
<glyph unicode="&#x20ac;" horiz-adv-x="1095" d="M160 444v181h121v98h-121v180h121v121q0 156 44 235.5t134 135.5q92 51 219 51q158 0 291 -68l-54 -159q-98 37 -203.5 36.5t-175 -52.5t-69.5 -161v-139h348v-180h-348v-98h348v-181h-348v-73q0 -92 45 -144q57 -66 184 -65.5t293 49.5l31 -172q-174 -68 -332 -68 q-33 0 -99.5 6.5t-141 46t-120.5 127t-46 216.5v77h-121z" />
<glyph unicode="&#x2122;" horiz-adv-x="1171" d="M215 1339v95h473l80 -222l78 222h131v-385h-94v245l-82 -245h-64l-82 245v-245h-98v290h-115v-290h-98v290h-129z" />
<glyph unicode="&#x25fc;" horiz-adv-x="1024" d="M0 0v1024h1024v-1024h-1024z" />
<glyph unicode="&#xfb01;" horiz-adv-x="886" d="M160 0v1090q0 94 35 172q66 145 235 184q35 6 76 6q133 0 262 -90l-141 -129q-51 45 -117 45t-114 -40t-48 -114v-98h199l-49 -176h-150v-850h-188zM627 0v1026h184v-1026h-184z" />
<glyph unicode="&#xfb02;" horiz-adv-x="886" d="M160 0v1090q0 227 172 315q76 41 191.5 41t287.5 -62v-1384h-188v1235q-51 41 -116 41t-112 -40t-47 -112v-98h199l-49 -176h-150v-850h-188z" />
<glyph unicode="&#xfb04;" horiz-adv-x="1361" d="M160 0v1018q0 68 6 125q25 188 182 262q74 33 175.5 33t244.5 -49q84 57 221 57t297 -55v-1391h-190v1237q-47 25 -90 25t-84 -17q-92 -37 -93 -135v-84h197q-16 -57 -49 -176h-148v-850h-190v1090q0 70 16 131q-61 37 -127.5 36.5t-123 -42t-56.5 -111.5v-78h199 q-16 -57 -49 -176h-150v-850h-188z" />
</font>
</defs>
</svg>
